<svg xmlns="http://www.w3.org/2000/svg" width="28" height="29.557" viewBox="0 0 28 29.557">
  <g id="Group_2516" data-name="Group 2516" transform="translate(5002.164 -795.192)">
    <path id="Path_4896" data-name="Path 4896" d="M-4973.453,807.289a12.128,12.128,0,0,0-11.38-12.09l-11.613-.008h-4.928v9.6h4.928v-4.809l11.492.018a7.33,7.33,0,0,1,6.712,7.293,7.33,7.33,0,0,1-6.712,7.293v4.8a12.091,12.091,0,0,0,1.4-.153l3.268,5.515h6.3l-4.417-7.7A12.1,12.1,0,0,0-4973.453,807.289Z" transform="translate(-0.71)" fill="#04265f"/>
    <path id="Path_4897" data-name="Path 4897" d="M-4999.206,915.694h-.644v2.449h-2.314v12.681h2.314V933.1h.644v-2.274h2.171V918.143h-2.171Z" transform="translate(0 -108.394)" fill="#00c288"/>
    <path id="Path_4898" data-name="Path 4898" d="M-4916.52,890.694h-.645v2.449h-2.313v15.193h2.313v2.274h.645v-2.274h2.171V893.143h-2.171Z" transform="translate(-74.378 -85.906)" fill="#00c288"/>
  </g>
</svg>
